<svg xmlns="http://www.w3.org/2000/svg" viewBox="0 0 375 375" fill="currentColor">
  <defs>
    <clipPath id="o-clip">
      <path d="M 37.5 103.121094 L 207.695312 103.121094 L 207.695312 270.695312 L 37.5 270.695312 Z M 37.5 103.121094"/>
    </clipPath>
    <clipPath id="o-shape">
      <path d="M 122.5 103.121094 C 75.554688 103.121094 37.5 140.632812 37.5 186.910156 C 37.5 233.183594 75.554688 270.695312 122.5 270.695312 C 169.441406 270.695312 207.5 233.183594 207.5 186.910156 C 207.5 140.632812 169.441406 103.121094 122.5 103.121094 Z"/>
    </clipPath>
  </defs>
  <g clip-path="url(#o-clip)">
    <g clip-path="url(#o-shape)">
      <rect x="37" y="103" width="171" height="168"/>
    </g>
  </g>
  <g transform="translate(203, 99)">
    <path d="M 69.296875 171.674018 C 66.148438 171.674018 63.472656 170.572456 61.265625 168.362018 C 59.054688 166.142799 57.953125 163.435956 57.953125 160.193268 L 57.953125 110.781768 C 51.160156 109.679487 44.8125 107.470674 38.90625 104.157237 C 33.007812 100.844643 27.8125 96.640955 23.3125 91.547018 C 18.8125 86.537174 15.285156 80.852237 12.734375 74.479737 C 10.191406 68.105956 8.789062 61.402893 8.53125 54.353518 L 8.53125 14.857237 C 8.53125 11.726143 9.675781 9.092237 11.96875 6.971143 C 14.175781 4.762237 16.8125 3.659456 19.875 3.659456 C 23.101562 3.659456 25.773438 4.749456 27.890625 6.916612 C 30.015625 9.078987 31.078125 11.726143 31.078125 14.857237 L 31.078125 52.946612 C 31.078125 57.964143 31.988281 62.700049 33.8125 67.155018 C 35.644531 71.618143 38.21875 75.539393 41.53125 78.939393 C 44.84375 82.422643 48.703125 85.115362 53.109375 87.034987 C 57.523438 88.940987 62.238281 89.892768 67.25 89.892768 C 72.257812 89.892768 76.929688 88.978706 81.265625 87.155018 C 85.597656 85.331768 89.378906 82.726143 92.609375 79.331768 C 95.835938 75.937393 98.34375 72.020987 100.125 67.602456 C 101.90625 63.193487 102.835938 58.478706 102.921875 53.470987 L 102.921875 14.857237 C 102.921875 11.726143 104.023438 9.078987 106.234375 6.916612 C 108.441406 4.749456 111.117188 3.659456 114.265625 3.659456 C 117.484375 3.659456 120.132812 4.749456 122.21875 6.916612 C 124.300781 9.078987 125.34375 11.726143 125.34375 14.857237 L 125.34375 51.814143 C 125.34375 58.857237 124.257812 65.589987 122.09375 72.003237 C 119.925781 78.409143 116.847656 84.207237 112.859375 89.395518 C 108.867188 94.578362 104.113281 98.946612 98.59375 102.512112 C 93.070312 106.080299 87.039062 108.624737 80.5 110.142768 L 80.5 160.193268 C 80.5 163.435956 79.394531 166.142799 77.1875 168.362018 C 74.976562 170.572456 72.347656 171.674018 69.296875 171.674018 Z"/>
  </g>
</svg>
