<svg xmlns="http://www.w3.org/2000/svg" viewBox="0 0 375 375" width="64" height="64">
  <defs>
    <linearGradient id="bg" x1="0" y1="0" x2="1" y2="1">
      <stop offset="0%" stop-color="#4a65ff"/>
      <stop offset="100%" stop-color="#8b5cf6"/>
    </linearGradient>
    <clipPath id="o-circle">
      <path d="M 122.5 103.121094 C 75.554688 103.121094 37.5 140.632812 37.5 186.910156 C 37.5 233.183594 75.554688 270.695312 122.5 270.695312 C 169.441406 270.695312 207.5 233.183594 207.5 186.910156 C 207.5 140.632812 169.441406 103.121094 122.5 103.121094 Z"/>
    </clipPath>
  </defs>
  <rect width="375" height="375" rx="72" fill="url(#bg)"/>
  <g clip-path="url(#o-circle)">
    <rect x="37" y="103" width="171" height="168" fill="#ffffff"/>
  </g>
  <g transform="matrix(1, 0, 0, 1, 203, 99) translate(0.621241, 171.674018)" fill="#ffffff">
    <path d="M 69.296875 0 C 66.148438 0 63.472656 -1.101562 61.265625 -3.3125 C 59.054688 -5.519531 57.953125 -8.238281 57.953125 -11.46875 L 57.953125 -60.890625 C 51.160156 -61.992188 44.8125 -64.203125 38.90625 -67.515625 C 33.007812 -70.828125 27.8125 -75.03125 23.3125 -80.125 C 18.8125 -85.132812 15.285156 -90.820312 12.734375 -97.1875 C 10.191406 -103.5625 8.789062 -110.269531 8.53125 -117.3125 L 8.53125 -156.8125 C 8.53125 -159.945312 9.675781 -162.578125 11.96875 -164.703125 C 14.175781 -166.910156 16.8125 -168.015625 19.875 -168.015625 C 23.101562 -168.015625 25.773438 -166.929688 27.890625 -164.765625 C 30.015625 -162.597656 31.078125 -159.945312 31.078125 -156.8125 L 31.078125 -118.71875 C 31.078125 -113.707031 31.988281 -108.972656 33.8125 -104.515625 C 35.644531 -100.054688 38.21875 -96.128906 41.53125 -92.734375 C 44.84375 -89.253906 48.703125 -86.554688 53.109375 -84.640625 C 57.523438 -82.734375 62.238281 -81.78125 67.25 -81.78125 C 72.257812 -81.78125 76.929688 -82.691406 81.265625 -84.515625 C 85.597656 -86.335938 89.378906 -88.945312 92.609375 -92.34375 C 95.835938 -95.75 98.34375 -99.65625 100.125 -104.0625 C 101.90625 -108.476562 102.835938 -113.191406 102.921875 -118.203125 L 102.921875 -156.8125 C 102.921875 -159.945312 104.023438 -162.597656 106.234375 -164.765625 C 108.441406 -166.929688 111.117188 -168.015625 114.265625 -168.015625 C 117.484375 -168.015625 120.132812 -166.929688 122.21875 -164.765625 C 124.300781 -162.597656 125.34375 -159.945312 125.34375 -156.8125 L 125.34375 -119.859375 C 125.34375 -112.816406 124.257812 -106.085938 122.09375 -99.671875 C 119.925781 -93.265625 116.847656 -87.46875 112.859375 -82.28125 C 108.867188 -77.101562 104.113281 -72.726562 98.59375 -69.15625 C 93.070312 -65.59375 87.039062 -63.050781 80.5 -61.53125 L 80.5 -11.46875 C 80.5 -8.238281 79.394531 -5.519531 77.1875 -3.3125 C 74.976562 -1.101562 72.347656 0 69.296875 0 Z M 69.296875 0"/>
  </g>
</svg>
